<svg width="22" height="23" viewBox="0 0 22 23" fill="none" xmlns="http://www.w3.org/2000/svg">
<path d="M11 20C6.0293 20 2 15.9707 2 11C2 6.0293 6.0293 2 11 2C15.9707 2 20 6.0293 20 11C20 15.9707 15.9707 20 11 20ZM16.7195 14.5568V14.4623C16.7195 13.6325 16.7195 13.2536 16.1327 12.9179C15.9441 12.811 15.7504 12.7134 15.5522 12.6254C15.2219 12.4751 15.0032 12.377 14.708 11.945C14.6728 11.8937 14.638 11.8421 14.6036 11.7902C14.2931 11.3177 14.069 10.9775 13.2158 11.1125C11.5373 11.3789 11.4131 11.6741 11.3393 12.1727L11.3276 12.2546C11.2187 12.9836 11.1989 13.2284 11.5031 13.5479C12.6416 14.7422 13.3238 15.6035 13.5308 16.1075C13.6316 16.3532 13.8908 17.0975 13.7126 17.8337C14.805 17.3986 15.7774 16.7082 16.5485 15.8204C16.6475 15.4838 16.7195 15.0644 16.7195 14.5568ZM11 3.6497C8.9147 3.6497 7.031 4.5191 5.6936 5.9141C5.8529 6.0248 5.9915 6.1805 6.0869 6.3947C6.2705 6.806 6.2705 7.2299 6.2705 7.6052C6.2705 7.9004 6.2705 8.1812 6.365 8.3837C6.4946 8.6609 7.0544 8.7797 7.5485 8.8823C7.7258 8.9201 7.9076 8.9579 8.0732 9.0038C8.5286 9.1298 8.8814 9.5393 9.1631 9.8678C9.2801 10.0037 9.4538 10.2044 9.5411 10.2548C9.5861 10.2224 9.731 10.0649 9.8021 9.8066C9.8579 9.6086 9.8417 9.434 9.7616 9.3386C9.2576 8.7446 9.2855 7.6016 9.4412 7.1795C9.686 6.5144 10.451 6.5639 11.0108 6.5999C11.2196 6.6134 11.4158 6.6269 11.5634 6.608C12.1232 6.5378 12.296 5.6855 12.4175 5.519C12.6803 5.159 13.4849 4.6163 13.9835 4.2815C13.0443 3.86389 12.0278 3.64863 11 3.6497Z" fill="white"/>
</svg>
