<svg width="22" height="23" viewBox="0 0 22 23" fill="none" xmlns="http://www.w3.org/2000/svg">
<g clip-path="url(#clip0)">
<path d="M13.8333 18V8.83333H18V17.1667C18 17.3877 17.9122 17.5996 17.7559 17.7559C17.5996 17.9122 17.3877 18 17.1667 18H13.8333ZM12.1667 18H3.83333C3.61232 18 3.40036 17.9122 3.24408 17.7559C3.0878 17.5996 3 17.3877 3 17.1667V8.83333H12.1667V18ZM18 7.16667H3V3.83333C3 3.61232 3.0878 3.40036 3.24408 3.24408C3.40036 3.0878 3.61232 3 3.83333 3H17.1667C17.3877 3 17.5996 3.0878 17.7559 3.24408C17.9122 3.40036 18 3.61232 18 3.83333V7.16667Z" fill="white"/>
</g>
<defs>
<clipPath id="clip0">
<rect width="22" height="22" fill="white" transform="translate(0 0.5)"/>
</clipPath>
</defs>
</svg>
