<svg width="23" height="23" viewBox="0 0 23 23" fill="none" xmlns="http://www.w3.org/2000/svg">
<g clip-path="url(#clip0)">
<path d="M3 11.25H19V17.2515C19 17.6648 18.6044 18 18.1173 18H3.88267C3.76645 17.9998 3.65141 17.9803 3.54414 17.9425C3.43686 17.9048 3.33945 17.8496 3.25748 17.7801C3.1755 17.7106 3.11057 17.6281 3.06639 17.5374C3.02221 17.4467 2.99965 17.3496 3 17.2515V11.25ZM3 3.7485C3 3.33525 3.39556 3 3.88267 3H18.1173C18.6044 3 19 3.3345 19 3.7485V9.75H3V3.7485ZM8.33334 5.25V6.75H13.6667V5.25H8.33334ZM8.33334 13.5V15H13.6667V13.5H8.33334Z" fill="#FFFCFC"/>
</g>
<defs>
<clipPath id="clip0">
<rect width="22" height="22" fill="white" transform="translate(0.5 0.5)"/>
</clipPath>
</defs>
</svg>
