<svg width="23" height="23" viewBox="0 0 23 23" fill="none" xmlns="http://www.w3.org/2000/svg">
<path d="M16.9707 3C17.4081 3 17.7631 3.3584 17.7631 3.8V6.8056L10.6323 14.0056L10.6276 17.396L13.9921 17.4008L17.7631 13.5936V18.2C17.7631 18.6416 17.4081 19 16.9707 19H4.29239C3.85499 19 3.5 18.6416 3.5 18.2V3.8C3.5 3.3584 3.85499 3 4.29239 3H16.9707ZM18.3796 8.4464L19.5 9.5776L13.3368 15.8L12.2147 15.7984L12.2163 14.6688L18.3796 8.4464ZM10.6315 11H6.66957V12.6H10.6315V11ZM13.0087 7.8H6.66957V9.4H13.0087V7.8Z" fill="white"/>
</svg>
