<svg width="22" height="22" viewBox="0 0 22 22" fill="none" xmlns="http://www.w3.org/2000/svg">
<path d="M13.5353 13.3361C14.3732 12.5778 14.9091 11.4273 14.9091 10.1371C14.9091 7.85103 13.2268 6 11.1529 6C9.07715 6 7.3949 7.85196 7.3949 10.1371C7.3949 11.2839 7.81937 12.3235 8.50485 13.0716C8.58974 13.1544 10.9795 15.4089 13.5353 13.3361ZM16.0547 16.1979L14.0127 14.2993C13.246 14.9403 11.0744 16.2919 8.07126 14.2509C7.16759 14.9607 4.75235 16.999 5.02068 18.374C5.02068 18.374 5.06817 19.8077 7.62221 19.8776C7.62221 19.8776 15.234 20.4514 16.5001 19.1146C16.4983 19.1137 17.8812 18.2044 16.0547 16.1979Z" fill="white"/>
</svg>
