<svg width="22" height="22" viewBox="0 0 22 22" fill="none" xmlns="http://www.w3.org/2000/svg">
<path d="M9.28075 17.5191H5.27067V5.39827H9.28075C9.76247 5.39827 10.0832 5.05165 10.0832 4.53208C10.0832 4.01251 9.76247 3.66663 9.28075 3.66663H5.27067C4.38841 3.66663 3.6665 4.44598 3.6665 5.39827V17.5191C3.6665 18.4713 4.38841 19.25 5.26999 19.25H9.28075C9.76247 19.25 10.0832 18.9041 10.0832 18.3845C10.0832 17.8649 9.76247 17.5191 9.28075 17.5191Z" fill="white"/>
<path d="M17.1666 10.8812L13.8334 7.58097C13.7575 7.50261 13.6667 7.44033 13.5665 7.39781C13.4663 7.35528 13.3587 7.33337 13.2499 7.33337C13.1412 7.33337 13.0335 7.35528 12.9333 7.39781C12.8331 7.44033 12.7424 7.50261 12.6665 7.58097C12.5876 7.65478 12.5247 7.74416 12.4817 7.84352C12.4387 7.94288 12.4165 8.0501 12.4165 8.15848C12.4165 8.26687 12.4387 8.37409 12.4817 8.47345C12.5247 8.57281 12.5876 8.66219 12.6665 8.736L14.5834 10.6337H9.08297C8.58389 10.6337 8.25 10.9633 8.25 11.4584C8.25 11.9535 8.58319 12.2831 9.08297 12.2831H14.5834L12.6665 14.1808C12.5876 14.2546 12.5247 14.344 12.4817 14.4433C12.4387 14.5427 12.4165 14.6499 12.4165 14.7583C12.4165 14.8667 12.4387 14.9739 12.4817 15.0733C12.5247 15.1726 12.5876 15.262 12.6665 15.3358C12.8331 15.5006 13.0833 15.5834 13.2499 15.5834C13.4165 15.5834 13.6668 15.5006 13.8334 15.3358L17.1666 12.0363C17.2455 11.9625 17.3084 11.8731 17.3514 11.7737C17.3945 11.6744 17.4167 11.5671 17.4167 11.4587C17.4167 11.3504 17.3945 11.2431 17.3514 11.1438C17.3084 11.0444 17.2455 10.955 17.1666 10.8812Z" fill="white"/>
</svg>
