<svg width="22" height="23" viewBox="0 0 22 23" fill="none" xmlns="http://www.w3.org/2000/svg">
<path fill-rule="evenodd" clip-rule="evenodd" d="M11.9 18.3V16.5H19.1C19.3387 16.5 19.5676 16.4052 19.7364 16.2364C19.9052 16.0676 20 15.8387 20 15.6V3.9C20 3.66131 19.9052 3.43239 19.7364 3.2636C19.5676 3.09482 19.3387 3 19.1 3H2.9C2.66131 3 2.43239 3.09482 2.2636 3.2636C2.09482 3.43239 2 3.66131 2 3.9V15.6C2 15.8387 2.09482 16.0676 2.2636 16.2364C2.43239 16.4052 2.66131 16.5 2.9 16.5H10.1V18.3H6.5V20.1H15.5V18.3H11.9ZM11.322 12.7839L17.8486 7.76349L16.7511 6.33677L11.5777 10.3163L8.84144 7.12408L4.55718 10.8728L5.74249 12.2274L8.65822 9.67618L11.322 12.7839Z" fill="white"/>
</svg>
