<svg width="23" height="23" viewBox="0 0 23 23" fill="none" xmlns="http://www.w3.org/2000/svg">
<path d="M4.03742 17.3V12.2C4.03742 10.3965 4.77098 8.66692 6.07672 7.39167C7.38245 6.11643 9.15341 5.4 11 5.4C12.8466 5.4 14.6175 6.11643 15.9233 7.39167C17.229 8.66692 17.9626 10.3965 17.9626 12.2V17.3H18.8329V19H3.1671V17.3H4.03742ZM5.77807 12.2H7.51871C7.51871 11.2983 7.88549 10.4335 8.53836 9.79584C9.19123 9.15821 10.0767 8.8 11 8.8V7.1C9.61506 7.1 8.28684 7.63732 7.30754 8.59376C6.32823 9.55019 5.77807 10.8474 5.77807 12.2ZM10.1297 2H11.8703V4.55H10.1297V2ZM17.7694 4.3868L19 5.5887L17.1549 7.39155L15.9234 6.18965L17.7694 4.3868ZM3 5.5887L4.23064 4.3868L6.07659 6.1888L4.84682 7.3924L3 5.5887Z" fill="white"/>
</svg>
